<svg width="74" height="26" viewBox="0 0 74 26" fill="none" xmlns="http://www.w3.org/2000/svg">
<path fill-rule="evenodd" clip-rule="evenodd" d="M0.605416 5.36465H1.11063C1.98209 3.78026 2.49924 2.02509 2.62626 0.220703H5.74173V5.36465H6.58375V7.89446H5.57333V6.20792H1.61584V7.89446H0.605416V5.36465ZM3.46828 1.06397C3.46828 1.65426 3.21567 2.41321 2.96307 3.17215C2.71046 4.01542 2.45786 4.77436 2.12105 5.36465H4.81551V1.06397H3.55248H3.46828ZM11.3833 3.93109C11.4219 4.53572 11.2427 5.13418 10.878 5.61763C10.457 6.03927 9.95182 6.29225 9.19401 6.29225C8.81337 6.30471 8.43607 6.21751 8.09938 6.03927C7.7685 5.8401 7.5046 5.54645 7.34156 5.196L7.08896 3.93109C7.08896 3.17215 7.34157 2.58186 7.67837 2.24455C8.09938 1.73859 8.52039 1.56994 9.27821 1.56994C9.95182 1.56994 10.457 1.82292 10.878 2.24455C11.2149 2.66619 11.3833 3.17215 11.3833 3.93109ZM8.09938 3.93109C8.09938 4.94302 8.52039 5.53331 9.27821 5.53331C10.036 5.53331 10.457 4.94302 10.457 3.84676C10.457 2.91917 10.036 2.32888 9.27821 2.32888C8.8572 2.32888 8.60459 2.49753 8.43619 2.75051C8.18358 3.00349 8.09938 3.42513 8.09938 3.93109ZM14.3303 6.29225C13.6567 6.29225 13.1515 6.12359 12.8147 5.70196C12.3937 5.28032 12.2253 4.69003 12.2253 4.01542C12.2253 3.17215 12.4779 2.58186 12.8147 2.16022C13.1515 1.73859 13.6567 1.56994 14.4987 1.56994L15.7618 1.82292L15.4249 2.66619L14.4145 2.41321C13.5725 2.41321 13.2357 2.91917 13.2357 3.93109C13.2357 4.43705 13.3199 4.77436 13.5725 5.11167C13.7409 5.36465 13.9935 5.44898 14.4145 5.44898C14.8355 5.44898 15.2565 5.44898 15.5933 5.196V6.03927L15.0881 6.20792C14.8395 6.26467 14.5853 6.29296 14.3303 6.29225ZM20.1402 1.65426V2.41321H18.6246V6.20792H17.6984V2.41321H16.1828V1.65426H20.1402ZM20.3087 1.65426H21.3191L22.2453 4.18407L22.5821 5.28032C22.5821 5.11167 22.5821 4.94302 22.7505 4.69003L23.7609 1.65426H24.7713L22.8347 6.79821C22.4979 7.72581 21.9927 8.23177 21.1507 8.23177H20.4771V7.3885H20.9823C21.4033 7.3885 21.8243 7.21984 21.9927 6.62956L22.1611 6.20792L20.3087 1.65426ZM29.4867 1.65426V6.20792H28.392V2.41321H26.3712V6.20792H25.445V1.65426H29.4024H29.4867ZM31.8443 1.65426V3.50946H33.9493V1.65426H34.9598V6.20792H33.9493V4.2684H31.8443V6.20792H30.8339V1.65426H31.8443ZM40.3487 3.93109C40.3636 4.54636 40.1541 5.14597 39.7593 5.61763C39.4225 6.03927 38.9173 6.29225 38.1594 6.29225C37.7788 6.30471 37.4015 6.21751 37.0648 6.03927C36.7339 5.8401 36.47 5.54645 36.307 5.196L36.0544 3.93109C36.0544 3.17215 36.2228 2.58186 36.6438 2.24455C36.9806 1.73859 37.4858 1.56994 38.2436 1.56994C38.8331 1.56994 39.4225 1.82292 39.7593 2.24455C40.1803 2.66619 40.3487 3.17215 40.3487 3.93109ZM36.9806 3.93109C36.9806 4.94302 37.4016 5.53331 38.2436 5.53331C39.0015 5.53331 39.3383 4.94302 39.3383 3.84676C39.3383 2.91917 39.0015 2.32888 38.1594 2.32888C37.8226 2.32888 37.4858 2.49753 37.3174 2.75051C37.149 3.00349 37.0648 3.42513 37.0648 3.93109H36.9806ZM47.5901 2.83484C47.5901 3.3408 47.2532 3.67811 46.6638 3.76244L47.5058 4.18407C47.6743 4.35273 47.7585 4.60571 47.7585 4.85869C47.7585 5.28032 47.5901 5.70196 47.2532 5.87061C46.8201 6.12273 46.3218 6.24014 45.8218 6.20792H43.6326V1.65426H45.8218C47.0006 1.65426 47.5901 2.0759 47.5901 2.83484ZM46.748 4.77436C46.748 4.60571 46.6638 4.43705 46.4954 4.35273C46.234 4.22459 45.9439 4.16648 45.6534 4.18407H44.643V5.53331H45.7376C46.4112 5.53331 46.748 5.28032 46.748 4.77436ZM46.6638 2.91917C46.6638 2.75051 46.5796 2.58186 46.4112 2.49753L45.8218 2.41321H44.643V3.50946H45.6534C45.9902 3.50946 46.2428 3.50946 46.4112 3.3408C46.5796 3.3408 46.6638 3.08782 46.6638 2.91917ZM9.0256 22.6517L8.8572 22.1457L8.43619 20.9651L8.01518 19.7846L7.84677 19.2786H3.13147L1.95264 22.6517H0.437012L4.73131 10.8459H6.16274L10.5412 22.6517H9.0256ZM5.48912 12.6168L5.23652 13.1227L4.81551 14.472C4.45477 15.4573 4.08989 16.4411 3.72089 17.4234L3.55248 18.0137H7.42577L5.48912 12.6168ZM16.1828 13.713C16.6986 13.7031 17.2099 13.812 17.677 14.0313C18.1442 14.2506 18.5548 14.5745 18.8772 14.9779C19.5508 15.8212 19.8876 16.8331 19.8876 18.1824C19.8876 19.5316 19.5508 20.7122 18.8772 21.5554C18.5465 21.9435 18.1322 22.2513 17.6655 22.4558C17.1987 22.6603 16.6918 22.7561 16.1828 22.736C15.5943 22.7452 15.0136 22.5999 14.4987 22.3144C14.0428 22.0532 13.6649 21.6747 13.4041 21.2181V25.6031H11.8885V13.7974H13.2357V15.2309C13.5725 14.8093 13.9093 14.3876 14.4987 14.1347C15.0164 13.8562 15.5952 13.7113 16.1828 13.713ZM15.9302 21.4711C16.688 21.4711 17.2774 21.1338 17.7826 20.6278C18.2036 19.9532 18.4562 19.1943 18.4562 18.1824C18.4562 17.2548 18.2036 16.4958 17.7826 15.9055C17.2774 15.3152 16.688 15.0623 15.846 15.0623C15.1723 15.0623 14.4987 15.3152 14.0777 15.9055C13.5725 16.4958 13.3199 17.2548 13.3199 18.1824C13.3199 19.11 13.5725 19.9532 14.0777 20.5435C14.4987 21.1338 15.1723 21.3868 15.846 21.3868L15.9302 21.4711ZM25.866 13.713C26.3818 13.7031 26.8931 13.812 27.3603 14.0313C27.8274 14.2506 28.2381 14.5745 28.5604 14.9779C29.3182 15.8212 29.6551 16.8331 29.6551 18.1824C29.6551 19.5316 29.3182 20.7122 28.5604 21.5554C28.2297 21.9435 27.8154 22.2513 27.3487 22.4558C26.882 22.6603 26.375 22.7561 25.866 22.736C25.2775 22.7452 24.6969 22.5999 24.1819 22.3144C23.726 22.0532 23.3481 21.6747 23.0873 21.2181V25.6031H21.6559V13.7974H23.0031V15.2309C23.2557 14.8093 23.6767 14.3876 24.1819 14.1347C24.6996 13.8562 25.2784 13.7113 25.866 13.713ZM25.6134 21.4711C26.3712 21.4711 26.9606 21.1338 27.4658 20.6278C27.971 19.9532 28.1394 19.1943 28.1394 18.1824C28.1394 17.2548 27.971 16.4958 27.4658 15.9055C26.9606 15.3152 26.3712 15.0623 25.6134 15.0623C24.7713 15.0623 24.1819 15.3152 23.7609 15.9055C23.2557 16.4958 23.0031 17.2548 23.0031 18.1824C23.0031 19.11 23.2557 19.9532 23.7609 20.5435C24.1819 21.1338 24.8555 21.3868 25.6134 21.3868V21.4711ZM35.1282 19.3629C35.1534 19.8578 35.2872 20.3411 35.52 20.7783C35.7529 21.2156 36.0791 21.5961 36.4754 21.8927C37.3174 22.483 38.2436 22.8203 39.5067 22.8203C40.6473 22.8823 41.7752 22.5553 42.7063 21.8927C43.5484 21.2181 43.9694 20.3749 43.9694 19.3629C43.9694 18.5197 43.6326 17.7607 43.1274 17.2548C42.3674 16.6523 41.4709 16.2468 40.5171 16.0742L39.2541 15.7369C38.412 15.5682 37.9068 15.3152 37.57 14.9779C37.3911 14.856 37.2441 14.6928 37.1415 14.502C37.0389 14.3111 36.9837 14.0984 36.9806 13.8817C36.9806 13.2914 37.2332 12.8698 37.7384 12.5324C38.2436 12.1108 38.8331 11.9422 39.5909 11.9422C40.4329 11.9422 41.0223 12.1108 41.4433 12.5324C41.9485 12.8698 42.2853 13.3757 42.2853 13.966H43.7168C43.7168 13.0384 43.2958 12.1951 42.5379 11.6048C41.7801 10.9302 40.8539 10.5929 39.6751 10.5929C38.412 10.5929 37.4016 10.9302 36.6438 11.5205C35.8018 12.1951 35.465 12.9541 35.465 13.966C35.465 15.4839 36.5596 16.4958 38.5805 17.0861L40.0961 17.5077C40.7361 17.6207 41.3413 17.8804 41.8643 18.2667C42.2011 18.604 42.3695 19.0256 42.3695 19.5316C42.3737 19.8151 42.3065 20.095 42.174 20.3456C42.0416 20.5962 41.8482 20.8092 41.6117 20.9651C41.1065 21.3025 40.4329 21.4711 39.6751 21.4711C38.8331 21.4711 38.1594 21.3025 37.57 20.8808C36.9806 20.5435 36.728 20.0375 36.6438 19.3629H35.1282ZM46.0744 11.7735V13.7974H44.8956V14.9779H46.1586V20.3749C46.1586 21.2181 46.327 21.8084 46.6638 22.1457C47.0006 22.483 47.5058 22.736 48.3479 22.736C48.63 22.7254 48.9112 22.6972 49.1899 22.6517V21.3868C49.1338 21.3872 49.0776 21.3872 49.0215 21.3868H48.6847C48.2637 21.3868 48.0111 21.3868 47.8427 21.2181C47.6743 20.9651 47.5901 20.7122 47.5901 20.2905V14.9779H49.2741V13.7974H47.5901V11.8578H46.1586L46.0744 11.7735ZM54.663 22.736C53.4842 22.736 52.4738 22.3144 51.7159 21.4711C50.9581 20.6278 50.6213 19.6159 50.6213 18.1824C50.6213 16.8331 50.9581 15.7369 51.7159 14.9779C52.4738 14.1347 53.4 13.713 54.663 13.713C55.926 13.713 56.9365 14.1347 57.6101 14.9779C58.3679 15.8212 58.7047 16.8331 58.7047 18.1824C58.7047 19.6159 58.3679 20.7122 57.6101 21.5554C56.9365 22.3144 55.926 22.736 54.663 22.736ZM54.663 21.4711C55.505 21.4711 56.1786 21.1338 56.5996 20.6278C57.1049 20.0375 57.2733 19.1943 57.2733 18.1824C57.2733 17.1704 57.1049 16.4115 56.5996 15.8212C56.1786 15.3152 55.505 14.9779 54.663 14.9779C53.821 14.9779 53.2316 15.3152 52.7264 15.8212C52.3054 16.4115 52.0527 17.1704 52.0527 18.1824C52.0527 19.1943 52.3054 20.0375 52.7264 20.6278C53.2316 21.1338 53.9052 21.4711 54.663 21.4711ZM60.4729 22.6517H61.8202V17.1704C61.8202 16.5801 62.0728 16.0742 62.4096 15.6525C62.7464 15.3152 63.2516 15.0623 63.7568 15.0623C64.0396 15.062 64.3217 15.0902 64.5988 15.1466V13.7974C64.3748 13.7754 64.1492 13.7754 63.9252 13.7974C63.42 13.7974 62.999 13.7974 62.578 14.1347C62.2412 14.3876 61.9044 14.8093 61.736 15.2309V13.7974H60.4729V22.6517ZM69.4825 14.9779C68.7247 14.9779 68.2195 15.2309 67.7985 15.6525C67.2933 16.1585 66.9565 16.7488 66.9565 17.5077H71.8402C71.8402 16.6645 71.5876 16.1585 71.1666 15.6525C70.7456 15.2309 70.1562 14.9779 69.4825 14.9779ZM71.756 20.0376H73.1874C73.1032 20.8808 72.6822 21.4711 72.0086 21.9771C71.335 22.483 70.493 22.736 69.4825 22.736C68.3037 22.736 67.2933 22.3144 66.6197 21.4711C65.8618 20.6278 65.525 19.6159 65.525 18.2667C65.525 16.9174 65.8618 15.7369 66.6197 14.8936C67.2933 14.1347 68.3037 13.713 69.4825 13.713C70.6614 13.713 71.5876 14.1347 72.2612 14.8936C72.9348 15.6525 73.2716 16.7488 73.2716 18.098V18.604H67.1249V18.6883C67.1249 19.5316 67.3775 20.2062 67.8827 20.7122C68.1236 20.9584 68.4121 21.1527 68.7307 21.2832C69.0492 21.4137 69.391 21.4777 69.7351 21.4711C70.3246 21.4711 70.7456 21.3025 71.1666 21.1338C71.3675 21.0303 71.5456 20.8874 71.6903 20.7136C71.835 20.5397 71.9432 20.3385 72.0086 20.1219L71.756 20.0376Z" fill="#333333"/>
</svg>
