<svg width="21" height="25" viewBox="0 0 21 25" fill="none" xmlns="http://www.w3.org/2000/svg">
<path d="M18.8171 21.712C17.8067 23.2299 16.7962 24.6634 15.1122 24.6634C13.4282 24.6634 13.0072 23.8202 11.1547 23.8202C9.30228 23.8202 8.62867 24.6634 7.11304 24.6634C5.5132 24.8321 4.33438 23.1455 3.32395 21.6277C1.21891 18.6762 -0.380929 13.195 1.80832 9.48456C2.31048 8.57915 3.04166 7.822 3.92845 7.28914C4.81524 6.75627 5.82642 6.46646 6.86043 6.44879C8.37606 6.44879 9.8075 7.46071 10.8179 7.46071C11.7441 7.46071 13.5966 6.19581 15.449 6.36446C16.291 6.36446 18.4803 6.70177 19.9117 8.80995C19.7433 8.80995 17.2173 10.3278 17.3015 13.3636C17.3015 17.074 20.5011 18.2546 20.5011 18.2546C20.5011 18.3389 19.9959 19.9411 18.8171 21.712ZM11.9125 2.31677C12.7546 1.30484 14.2702 0.630225 15.449 0.545898C15.6174 1.89513 15.028 3.32869 14.186 4.34062C13.7634 4.87257 13.2252 5.30097 12.6124 5.59323C11.9996 5.88548 11.3282 6.03389 10.6495 6.02716C10.603 5.35565 10.6908 4.6816 10.9076 4.04448C11.1245 3.40737 11.4662 2.81999 11.9125 2.31677Z" fill="#333333"/>
</svg>
