<svg width="22" height="25" viewBox="0 0 22 25" fill="none" xmlns="http://www.w3.org/2000/svg">
<path d="M0.229789 22.4592V2.06916C0.229789 1.41142 0.633084 0.753676 1.1977 0.424805L12.7319 12.2642L1.1977 24.1035C0.901379 23.9494 0.653511 23.7136 0.48237 23.4228C0.311229 23.1321 0.223708 22.7982 0.229789 22.4592ZM16.3616 16.0462L3.77878 23.4458L13.7805 13.333L16.4422 16.0462H16.3616ZM20.3945 10.8665C20.5972 11.0361 20.7604 11.2495 20.8725 11.4912C20.9845 11.7328 21.0427 11.9968 21.0427 12.2642C21.0427 12.5315 20.9845 12.7955 20.8725 13.0371C20.7604 13.2788 20.5972 13.4922 20.3945 13.6619L17.6521 15.3062L14.7484 12.2642L17.6521 9.30432L20.3139 10.8665H20.3945ZM3.69812 1.08255L16.3616 8.48214L13.6998 11.2775L3.69812 1.08255Z" fill="#333333"/>
</svg>
