<svg width="72" height="26" viewBox="0 0 72 26" fill="none" xmlns="http://www.w3.org/2000/svg">
<path fill-rule="evenodd" clip-rule="evenodd" d="M0.26709 5.52212H0.751042C1.58583 3.97736 2.08123 2.26609 2.2029 0.506836H5.18728V5.52212H5.99387V7.98865H5.02597V6.34429H1.235V7.98865H0.26709V5.52212ZM3.00949 1.32901C3.00949 1.90454 2.76751 2.6445 2.52554 3.38446C2.28356 4.20663 2.04158 4.94659 1.71895 5.52212H4.30003V1.32901H3.09015H3.00949ZM10.5914 4.12442C10.6285 4.71392 10.4568 5.29741 10.1075 5.76877C9.70418 6.17986 9.22023 6.42651 8.4943 6.42651C8.12968 6.43866 7.76826 6.35364 7.44573 6.17986C7.12877 5.98568 6.87598 5.69937 6.7198 5.35768L6.47783 4.12442C6.47783 3.38446 6.7198 2.80893 7.04244 2.48006C7.44573 1.98676 7.84903 1.82232 8.57495 1.82232C9.22023 1.82232 9.70418 2.06897 10.1075 2.48006C10.4301 2.89115 10.5914 3.38446 10.5914 4.12442ZM7.44573 4.12442C7.44573 5.11103 7.84903 5.68655 8.57495 5.68655C9.30089 5.68655 9.70418 5.11103 9.70418 4.0422C9.70418 3.1378 9.30089 2.56228 8.57495 2.56228C8.17166 2.56228 7.92968 2.72671 7.76837 2.97337C7.52639 3.22002 7.44573 3.63111 7.44573 4.12442ZM13.4145 6.42651C12.7692 6.42651 12.2853 6.26208 11.9626 5.85099C11.5593 5.4399 11.398 4.86437 11.398 4.20663C11.398 3.38446 11.64 2.80893 11.9626 2.39784C12.2853 1.98675 12.7692 1.82232 13.5758 1.82232L14.7857 2.06897L14.4631 2.89115L13.4951 2.6445C12.6886 2.6445 12.3659 3.1378 12.3659 4.12442C12.3659 4.61772 12.4466 4.94659 12.6886 5.27546C12.8499 5.52212 13.0919 5.60433 13.4951 5.60433C13.8984 5.60433 14.3017 5.60433 14.6244 5.35768V6.17986L14.1404 6.34429C13.9023 6.39962 13.6587 6.4272 13.4145 6.42651ZM18.98 1.90454V2.6445H17.5281V6.34429H16.6408V2.6445H15.189V1.90454H18.98ZM19.1413 1.90454H20.1092L20.9964 4.37107L21.3191 5.4399C21.3191 5.27546 21.3191 5.11103 21.4804 4.86437L22.4483 1.90454H23.4162L21.561 6.91982C21.2384 7.82421 20.7544 8.31752 19.9479 8.31752H19.3026V7.49534H19.7865C20.1898 7.49534 20.5931 7.33091 20.7544 6.75538L20.9158 6.34429L19.1413 1.90454ZM27.9331 1.90454V6.34429H26.8845V2.6445H24.9487V6.34429H24.0615V1.90454H27.8524H27.9331ZM30.1915 1.90454V3.71333H32.208V1.90454H33.1759V6.34429H32.208V4.45329H30.1915V6.34429H29.2236V1.90454H30.1915ZM38.3381 4.12442C38.3524 4.72429 38.1516 5.3089 37.7735 5.76877C37.4508 6.17986 36.9669 6.42651 36.241 6.42651C35.8763 6.43866 35.5149 6.35364 35.1924 6.17986C34.8754 5.98568 34.6226 5.69937 34.4665 5.35768L34.2245 4.12442C34.2245 3.38446 34.3858 2.80893 34.7891 2.48006C35.1117 1.98676 35.5957 1.82232 36.3216 1.82232C36.8862 1.82232 37.4508 2.06897 37.7735 2.48006C38.1768 2.89115 38.3381 3.38446 38.3381 4.12442ZM35.1117 4.12442C35.1117 5.11103 35.515 5.68655 36.3216 5.68655C37.0475 5.68655 37.3702 5.11103 37.3702 4.0422C37.3702 3.1378 37.0475 2.56228 36.241 2.56228C35.9183 2.56228 35.5957 2.72671 35.4344 2.97337C35.273 3.22002 35.1924 3.63111 35.1924 4.12442H35.1117ZM45.2748 3.05559C45.2748 3.54889 44.9521 3.87776 44.3875 3.95998L45.1941 4.37107C45.3554 4.5355 45.4361 4.78216 45.4361 5.02881C45.4361 5.4399 45.2748 5.85099 44.9521 6.01542C44.5372 6.26123 44.0599 6.37571 43.5809 6.34429H41.4838V1.90454H43.5809C44.7101 1.90454 45.2748 2.31563 45.2748 3.05559ZM44.4682 4.94659C44.4682 4.78216 44.3875 4.61772 44.2262 4.5355C43.9758 4.41057 43.6979 4.35391 43.4196 4.37107H42.4517V5.68655H43.5003C44.1455 5.68655 44.4682 5.4399 44.4682 4.94659ZM44.3875 3.1378C44.3875 2.97337 44.3068 2.80893 44.1455 2.72671L43.5809 2.6445H42.4517V3.71333H43.4196C43.7422 3.71333 43.9842 3.71333 44.1455 3.54889C44.3068 3.54889 44.3875 3.30224 44.3875 3.1378ZM53.3406 19.2525C53.3406 20.4035 53.0987 21.3079 52.5341 22.0479C52.3006 22.3656 51.9954 22.6212 51.6444 22.7929C51.2933 22.9647 50.9068 23.0476 50.5176 23.0345C49.5497 23.0345 48.7431 22.7056 48.2591 21.9657V25.7477H47.4525V15.3882H48.2591V16.4571C48.7431 15.6349 49.5497 15.306 50.5176 15.306C51.4048 15.306 52.1308 15.6349 52.6147 16.2926C53.0987 16.9504 53.3406 17.937 53.3406 19.088V19.2525ZM52.5341 19.088C52.5341 18.1014 52.3727 17.4437 51.9694 16.8682C51.5661 16.2926 51.0015 16.046 50.3563 16.046C49.8723 16.046 49.3884 16.1282 49.0657 16.3749C48.7431 16.6215 48.4204 16.9504 48.2591 17.4437V21.0613C48.4377 21.4706 48.7335 21.8153 49.1078 22.0501C49.4821 22.2849 49.9173 22.3988 50.3563 22.3767C51.0015 22.3767 51.5661 22.0479 51.9694 21.5546C52.4076 20.8135 52.6052 19.9503 52.5341 19.088ZM56.0024 22.8701H55.1958V12.264H56.0024V22.9523V22.8701ZM62.8584 22.8701L62.6971 21.8834C62.4551 22.2123 62.0518 22.5412 61.6485 22.7056C61.1953 22.9262 60.6988 23.0387 60.1967 23.0345C59.6081 23.0491 59.0346 22.8444 58.5835 22.459C58.0995 22.0479 57.8575 21.5546 57.8575 20.8968C57.8575 20.1569 58.1802 19.5813 58.7448 19.2525C59.3094 18.7592 60.1966 18.5125 61.1646 18.5125H62.7777V17.6903C62.7754 17.4556 62.7239 17.2241 62.6265 17.0114C62.5291 16.7986 62.3881 16.6096 62.2131 16.4571C61.8905 16.1282 61.4065 15.9638 60.8419 15.9638C60.2773 15.9638 59.7934 16.1282 59.3901 16.4571C59.0674 16.7037 58.8254 17.0326 58.8254 17.5259H58.0189C58.0189 16.8682 58.3415 16.3749 58.8254 15.8815C59.3901 15.4705 60.0353 15.306 60.8419 15.306C61.6485 15.306 62.2938 15.4705 62.7777 15.8815C63.2617 16.2926 63.5037 16.8682 63.5843 17.6903V21.1435C63.5843 21.8012 63.5843 22.3767 63.7456 22.7878H62.939L62.8584 22.8701ZM60.358 22.2945C60.8419 22.2945 61.3259 22.2123 61.8098 21.8834C62.2131 21.6368 62.5358 21.3079 62.6971 20.8146V19.1703H61.2452C60.4386 19.1703 59.7934 19.3347 59.3901 19.6636C58.9061 19.9102 58.6641 20.3213 58.6641 20.8146C58.6641 21.3079 58.8254 21.6368 59.1481 21.8834C59.4707 22.1301 59.874 22.2945 60.358 22.2945ZM68.0206 21.719L70.1177 15.3882H71.0049L67.8592 24.1855L67.6979 24.5966C67.2946 25.4188 66.73 25.9121 65.8428 25.9121L65.1975 25.8299V25.1722H65.6815C66.0848 25.1722 66.4074 25.0899 66.6494 24.8433C66.8913 24.6788 67.0527 24.35 67.214 23.8567L67.6173 22.8701L64.8749 15.4705H65.6815L68.0206 21.719Z" fill="#333333"/>
</svg>
