<svg width="43" height="14" viewBox="0 0 43 14" fill="none" xmlns="http://www.w3.org/2000/svg">
<path fill-rule="evenodd" clip-rule="evenodd" d="M10.9622 5.03267L11.0429 5.85485C11.0429 8.81469 9.02643 10.7879 6.20337 10.7879C4.80536 10.7881 3.46339 10.2277 2.46733 9.22775C1.47127 8.22782 0.901065 6.86863 0.879883 5.44376C0.879883 2.64836 3.21899 0.0996094 6.12271 0.0996094C8.54248 0.0996094 9.75236 1.57953 9.75236 1.57953L8.78445 2.56614C8.78445 2.56614 7.81654 1.57953 6.20337 1.57953C4.10624 1.57953 2.4124 3.22388 2.4124 5.44376C2.40139 5.9543 2.49192 6.46181 2.67854 6.93572C2.86515 7.40962 3.14399 7.84009 3.49823 8.20118C3.85247 8.56227 4.27478 8.8465 4.7397 9.03672C5.20462 9.22694 5.70251 9.31922 6.20337 9.308C7.81654 9.308 9.42972 8.48582 9.59104 6.43038H6.20337V4.95046H11.0429L10.9622 5.03267ZM14.9952 3.88163C15.4395 3.86972 15.8815 3.95154 16.2934 4.12196C16.7053 4.29237 17.0781 4.54769 17.3886 4.87192C17.6991 5.19614 17.9406 5.58227 18.0978 6.00608C18.255 6.4299 18.3246 6.88225 18.3022 7.33477C18.3254 7.79448 18.2536 8.25402 18.0916 8.68367C17.9295 9.11333 17.6808 9.50352 17.3615 9.82901C17.0422 10.1545 16.6594 10.408 16.2379 10.5732C15.8163 10.7384 15.3655 10.8115 14.9145 10.7879C12.8981 10.7879 11.5269 9.14356 11.5269 7.33477C11.5269 5.44376 12.9787 3.88163 14.9145 3.88163H14.9952ZM14.9952 5.27933C13.866 5.27933 13.0594 6.1015 13.0594 7.33477C13.0594 8.56804 13.866 9.39021 14.9145 9.39021C15.8824 9.39021 16.8503 8.56804 16.8503 7.33477C16.8503 6.01929 15.8824 5.27933 14.9145 5.27933H14.9952ZM22.2545 3.88163C22.7055 3.858 23.1563 3.93115 23.5778 4.09633C23.9993 4.26151 24.3821 4.51504 24.7014 4.84053C25.0207 5.16602 25.2695 5.55621 25.4315 5.98587C25.5936 6.41552 25.6653 6.87507 25.6422 7.33477C25.6645 7.78729 25.5949 8.23965 25.4377 8.66346C25.2805 9.08727 25.0391 9.4734 24.7286 9.79763C24.4181 10.1219 24.0452 10.3772 23.6333 10.5476C23.2215 10.718 22.7795 10.7998 22.3351 10.7879C20.238 10.7879 18.8668 9.14356 18.8668 7.33477C18.8668 5.44376 20.3187 3.88163 22.2545 3.88163ZM22.2545 5.27933C21.2059 5.27933 20.3993 6.1015 20.3993 7.33477C20.3993 8.56804 21.2059 9.39021 22.2545 9.39021C23.303 9.39021 24.1903 8.56804 24.1903 7.33477C24.1903 6.01929 23.303 5.27933 22.3351 5.27933H22.2545ZM29.5138 3.88163C30.3204 3.88163 30.885 4.2105 31.2883 4.7038V4.12828H32.7401V10.2946C32.7401 12.7611 31.3689 13.83 29.5138 13.83C28.8814 13.8354 28.2613 13.6513 27.7307 13.3005C27.2001 12.9497 26.7824 12.4476 26.5294 11.8567L27.8199 11.2812C27.9813 11.6923 28.5459 12.5145 29.5138 12.5145C30.5623 12.5145 31.2883 11.7745 31.2883 10.6235V9.96574C30.9656 10.3768 30.4817 10.7879 29.4331 10.7879C27.9006 10.7879 26.2068 9.39021 26.2068 7.33477C26.2068 5.52598 27.6586 3.88163 29.4331 3.88163H29.5138ZM29.5944 5.27933C28.7072 5.27933 27.7393 6.1015 27.7393 7.33477C27.7393 8.65025 28.6265 9.39021 29.5944 9.39021C30.4817 9.39021 31.4496 8.65025 31.4496 7.33477C31.4496 6.01929 30.4817 5.27933 29.5944 5.27933ZM38.9509 3.88163C40.3221 3.88163 41.3706 4.78602 41.7739 5.93707L42.0159 6.43038L37.499 8.4036C37.741 8.89691 38.2249 9.39021 39.1122 9.39021C39.9994 9.39021 40.4834 8.97913 40.806 8.48582L41.9352 9.308C41.4513 9.96574 40.564 10.7879 39.1122 10.7879C38.6746 10.7885 38.2414 10.6983 37.8391 10.5228C37.4367 10.3474 37.0736 10.0903 36.7718 9.76729C36.47 9.44427 36.2358 9.06204 36.0835 8.64386C35.9312 8.22568 35.864 7.78028 35.8858 7.33477C35.8858 5.27933 37.257 3.88163 38.9509 3.88163ZM39.0315 5.19711C38.0636 5.19711 37.1764 6.26594 37.257 7.25255L40.4027 5.85485C40.1608 5.44376 39.7575 5.11489 39.1122 5.11489L39.0315 5.19711ZM33.708 10.5413V0.42848H35.1599V10.5413H33.708Z" fill="#333333"/>
</svg>
